<?xml version="1.0" standalone="no"?><!DOCTYPE svg PUBLIC "-//W3C//DTD SVG 1.1//EN" "http://www.w3.org/Graphics/SVG/1.1/DTD/svg11.dtd"><svg t="1583224953998" class="icon" viewBox="0 0 1024 1024" version="1.1" xmlns="http://www.w3.org/2000/svg" p-id="19051" xmlns:xlink="http://www.w3.org/1999/xlink" width="200" height="200"><defs><style type="text/css"></style></defs><path d="M556.73856 133.1456a63.40608 63.40608 0 0 0-85.19168 0L127.05792 460.25216a31.78496 31.78496 0 0 0 42.56256 47.2064l5.47328-5.20192v341.4016c-0.04096 35.09248 28.38016 63.59552 63.47776 63.6416h185.04192v-191.34976a44.7488 44.7488 0 0 1 44.69248-44.81024H555.42272a44.7488 44.7488 0 0 1 44.76928 44.72832V907.29984h189.34784c35.0976 0.01024 63.5648-28.4416 63.57504-63.5392V506.42432c14.12096 12.7744 34.15552 11.81184 45.9008-1.28512a31.77472 31.77472 0 0 0-2.28352-44.88704l-0.01024-0.00512-339.968-327.08608v-0.01536h-0.01536z" fill="#516ACC" p-id="19052"></path></svg>